<?xml version="1.0" standalone="no"?>
<!DOCTYPE svg PUBLIC "-//W3C//DTD SVG 20010904//EN"
 "http://www.w3.org/TR/2001/REC-SVG-20010904/DTD/svg10.dtd">
<svg version="1.0" xmlns="http://www.w3.org/2000/svg"
 width="1920.000000pt" height="1080.000000pt" viewBox="0 0 1920.000000 1080.000000"
 preserveAspectRatio="xMidYMid meet">

<g transform="translate(0.000000,1080.000000) scale(0.100000,-0.100000)"
fill="#000000" stroke="none">
<path d="M188 10564 c-101 -130 -185 -241 -187 -247 -6 -17 151 181 372 471 5
6 7 12 4 12 -4 0 -89 -106 -189 -236z"/>
<path d="M891 9649 c-491 -633 -891 -1153 -889 -1155 2 -1 406 515 897 1147
491 633 891 1153 889 1155 -2 2 -406 -515 -897 -1147z"/>
<path d="M1760 8548 c-960 -1237 -1749 -2257 -1754 -2266 -8 -15 -7 -15 6 -2
9 8 779 1001 1714 2205 934 1205 1720 2218 1747 2253 27 34 45 62 40 61 -4 0
-793 -1013 -1753 -2251z"/>
<path d="M2615 7434 c-2238 -2886 -2738 -3533 -2593 -3359 13 17 1171 1508
2573 3315 1401 1807 2570 3313 2597 3348 28 34 46 62 41 61 -4 0 -1182 -1514
-2618 -3365z"/>
<path d="M3920 5789 c-3317 -4245 -3965 -5076 -3918 -5029 22 22 7838 10033
7836 10036 -2 2 -1765 -2251 -3918 -5007z"/>
<path d="M6510 5413 c-2273 -2964 -4138 -5395 -4144 -5403 -5 -8 -1 -6 11 5
19 18 8250 10744 8267 10773 4 6 5 12 3 12 -2 0 -1864 -2424 -4137 -5387z"/>
<path d="M9355 5404 c-2336 -2968 -4245 -5397 -4243 -5399 3 -3 8441 10713
8486 10777 7 10 11 18 8 18 -3 0 -1916 -2428 -4251 -5396z"/>
<path d="M11335 5430 c-2436 -2953 -4441 -5384 -4454 -5402 l-25 -33 26 25
c14 14 2002 2421 4418 5350 2417 2929 4413 5349 4438 5378 24 28 41 52 36 52
-5 -1 -2002 -2417 -4439 -5370z"/>
<path d="M13435 5458 c-2387 -2938 -4362 -5368 -4388 -5400 -27 -32 -45 -58
-40 -58 10 1 8776 10790 8771 10795 -2 2 -1957 -2400 -4343 -5337z"/>
<path d="M16085 4878 c-1710 -2205 -3262 -4204 -3447 -4443 -186 -239 -334
-435 -330 -435 5 1 6712 8637 6861 8836 18 25 32 46 30 48 -2 2 -1403 -1801
-3114 -4006z"/>
<path d="M17088 2738 c-1157 -1492 -2108 -2720 -2112 -2728 -8 -13 -7 -13 6 0
16 16 4198 5406 4212 5428 4 6 5 12 3 12 -2 0 -951 -1221 -2109 -2712z"/>
<path d="M18250 1259 c-520 -670 -951 -1229 -959 -1241 -13 -21 -13 -22 1 -8
9 8 438 559 953 1225 516 666 942 1216 948 1223 5 7 8 14 6 16 -2 2 -429 -545
-949 -1215z"/>
</g>
</svg>
